<svg width="30" height="30" viewBox="0 0 30 30" fill="none" xmlns="http://www.w3.org/2000/svg">
<path d="M15 3.75H6.25C5.58696 3.75 4.95107 4.01339 4.48223 4.48223C4.01339 4.95107 3.75 5.58696 3.75 6.25V23.75C3.75 24.413 4.01339 25.0489 4.48223 25.5178C4.95107 25.9866 5.58696 26.25 6.25 26.25H23.75C24.413 26.25 25.0489 25.9866 25.5178 25.5178C25.9866 25.0489 26.25 24.413 26.25 23.75V15" stroke="black" stroke-width="2" stroke-linecap="round" stroke-linejoin="round"/>
<path d="M22.9689 3.28124C23.4661 2.78396 24.1406 2.50459 24.8439 2.50459C25.5471 2.50459 26.2216 2.78396 26.7189 3.28124C27.2161 3.77852 27.4955 4.45298 27.4955 5.15624C27.4955 5.8595 27.2161 6.53396 26.7189 7.03124L15.4526 18.2987C15.1558 18.5953 14.7891 18.8124 14.3864 18.93L10.7951 19.98C10.6876 20.0114 10.5735 20.0132 10.465 19.9854C10.3565 19.9576 10.2574 19.9012 10.1782 19.8219C10.0989 19.7427 10.0425 19.6436 10.0147 19.5351C9.98686 19.4266 9.98875 19.3126 10.0201 19.205L11.0701 15.6137C11.1883 15.2113 11.4058 14.8451 11.7026 14.5487L22.9689 3.28124Z" stroke="black" stroke-width="2" stroke-linecap="round" stroke-linejoin="round"/>
</svg>
