<svg width="40" height="40" viewBox="0 0 40 40" fill="none" xmlns="http://www.w3.org/2000/svg">
<path d="M30.0002 21.6633H21.6668V29.9967C21.6668 30.4387 21.4912 30.8626 21.1787 31.1752C20.8661 31.4877 20.4422 31.6633 20.0002 31.6633C19.5581 31.6633 19.1342 31.4877 18.8217 31.1752C18.5091 30.8626 18.3335 30.4387 18.3335 29.9967V21.6633H10.0002C9.55814 21.6633 9.13421 21.4877 8.82165 21.1752C8.50909 20.8626 8.3335 20.4387 8.3335 19.9967C8.3335 19.5546 8.50909 19.1307 8.82165 18.8182C9.13421 18.5056 9.55814 18.33 10.0002 18.33H18.3335V9.99667C18.3335 9.55464 18.5091 9.13072 18.8217 8.81816C19.1342 8.5056 19.5581 8.33 20.0002 8.33C20.4422 8.33 20.8661 8.5056 21.1787 8.81816C21.4912 9.13072 21.6668 9.55464 21.6668 9.99667V18.33H30.0002C30.4422 18.33 30.8661 18.5056 31.1787 18.8182C31.4912 19.1307 31.6668 19.5546 31.6668 19.9967C31.6668 20.4387 31.4912 20.8626 31.1787 21.1752C30.8661 21.4877 30.4422 21.6633 30.0002 21.6633Z" fill="black"/>
</svg>
