<svg width="40" height="40" viewBox="0 0 40 40" fill="none" xmlns="http://www.w3.org/2000/svg">
<path d="M26.8533 33.3333L25.7049 32.1867L29.2049 28.6867L25.7049 25.1867L26.8533 24.0383L30.3533 27.5383L33.8533 24.0383L34.9999 25.1867L31.5416 28.6867L34.9999 32.1867L33.8533 33.3333L30.3533 29.875L26.8533 33.3333ZM19.9366 33.3333C16.5521 33.3333 13.6016 32.2278 11.0849 30.0167C8.56937 27.8067 7.11382 25.0233 6.71826 21.6667H8.40326C8.85659 24.5333 10.1627 26.9167 12.3216 28.8167C14.4805 30.7167 17.0188 31.6667 19.9366 31.6667C20.2421 31.6667 20.5427 31.66 20.8383 31.6467C21.1338 31.6333 21.4316 31.5983 21.7316 31.5417V33.2183C21.4316 33.2672 21.1338 33.2983 20.8383 33.3117C20.5427 33.325 20.2421 33.3322 19.9366 33.3333ZM8.26993 14.1033V7.17833H9.93659V11.1583C11.2255 9.74389 12.7355 8.64166 14.4666 7.85166C16.1977 7.06166 18.021 6.66666 19.9366 6.66666C23.6333 6.66666 26.7794 7.965 29.3749 10.5617C31.9705 13.1583 33.2688 16.3044 33.2699 20V20.45H31.6033V20C31.6033 16.75 30.471 13.9933 28.2066 11.73C25.9422 9.46666 23.1855 8.33444 19.9366 8.33333C18.2121 8.33333 16.591 8.69778 15.0733 9.42666C13.5566 10.1556 12.2177 11.1589 11.0566 12.4367H15.1933V14.1033H8.26993ZM23.2116 24.3583L19.1983 20.3467V11.6667H20.8649V19.6533L24.0966 22.885L23.2116 24.3583Z" fill="black"/>
</svg>
