<svg width="20" height="20" viewBox="0 0 20 20" fill="none" xmlns="http://www.w3.org/2000/svg">
<path fill-rule="evenodd" clip-rule="evenodd" d="M10.0002 5.62501C9.80865 5.62501 9.61902 5.58729 9.44208 5.514C9.26515 5.44071 9.10438 5.33329 8.96896 5.19787C8.83355 5.06246 8.72613 4.90169 8.65284 4.72476C8.57955 4.54782 8.54183 4.35819 8.54183 4.16668C8.54183 3.97517 8.57955 3.78553 8.65284 3.6086C8.72613 3.43166 8.83355 3.2709 8.96897 3.13548C9.10438 3.00006 9.26515 2.89264 9.44208 2.81935C9.61902 2.74606 9.80865 2.70834 10.0002 2.70834C10.3869 2.70834 10.7579 2.86199 11.0314 3.13548C11.3049 3.40897 11.4585 3.7799 11.4585 4.16668C11.4585 4.55345 11.3049 4.92438 11.0314 5.19787C10.7579 5.47136 10.3869 5.62501 10.0002 5.62501ZM11.4585 10C11.4585 10.3868 11.3049 10.7577 11.0314 11.0312C10.7579 11.3047 10.3869 11.4583 10.0002 11.4583C9.61339 11.4583 9.24246 11.3047 8.96896 11.0312C8.69547 10.7577 8.54183 10.3868 8.54183 10C8.54183 9.61324 8.69547 9.2423 8.96896 8.96881C9.24246 8.69532 9.61339 8.54168 10.0002 8.54168C10.3869 8.54168 10.7579 8.69532 11.0314 8.96881C11.3049 9.2423 11.4585 9.61324 11.4585 10ZM11.4585 15.8333C11.4585 16.2201 11.3049 16.591 11.0314 16.8645C10.7579 17.138 10.3869 17.2917 10.0002 17.2917C9.61339 17.2917 9.24245 17.138 8.96896 16.8645C8.69547 16.591 8.54183 16.2201 8.54183 15.8333C8.54183 15.4466 8.69547 15.0756 8.96896 14.8021C9.24245 14.5287 9.61339 14.375 10.0002 14.375C10.3869 14.375 10.7579 14.5287 11.0314 14.8021C11.3049 15.0756 11.4585 15.4466 11.4585 15.8333Z" fill="black"/>
</svg>
