<svg width="30" height="30" viewBox="0 0 30 30" fill="none" xmlns="http://www.w3.org/2000/svg">
<path fill-rule="evenodd" clip-rule="evenodd" d="M15 8.4375C14.7127 8.4375 14.4283 8.38092 14.1629 8.27099C13.8975 8.16105 13.6563 7.99992 13.4532 7.7968C13.2501 7.59367 13.0889 7.35252 12.979 7.08712C12.8691 6.82172 12.8125 6.53727 12.8125 6.25C12.8125 5.96273 12.8691 5.67828 12.979 5.41288C13.0889 5.14748 13.2501 4.90633 13.4532 4.7032C13.6563 4.50008 13.8975 4.33895 14.1629 4.22901C14.4283 4.11908 14.7127 4.0625 15 4.0625C15.5802 4.0625 16.1366 4.29297 16.5468 4.7032C16.957 5.11344 17.1875 5.66984 17.1875 6.25C17.1875 6.83016 16.957 7.38656 16.5468 7.7968C16.1366 8.20703 15.5802 8.4375 15 8.4375ZM17.1875 15C17.1875 15.5802 16.957 16.1366 16.5468 16.5468C16.1366 16.957 15.5802 17.1875 15 17.1875C14.4198 17.1875 13.8634 16.957 13.4532 16.5468C13.043 16.1366 12.8125 15.5802 12.8125 15C12.8125 14.4198 13.043 13.8634 13.4532 13.4532C13.8634 13.043 14.4198 12.8125 15 12.8125C15.5802 12.8125 16.1366 13.043 16.5468 13.4532C16.957 13.8634 17.1875 14.4198 17.1875 15ZM17.1875 23.75C17.1875 24.3302 16.957 24.8866 16.5468 25.2968C16.1366 25.707 15.5802 25.9375 15 25.9375C14.4198 25.9375 13.8634 25.707 13.4532 25.2968C13.043 24.8866 12.8125 24.3302 12.8125 23.75C12.8125 23.1698 13.043 22.6134 13.4532 22.2032C13.8634 21.793 14.4198 21.5625 15 21.5625C15.5802 21.5625 16.1366 21.793 16.5468 22.2032C16.957 22.6134 17.1875 23.1698 17.1875 23.75Z" fill="white"/>
</svg>
