<svg width="40" height="40" viewBox="0 0 40 40" fill="none" xmlns="http://www.w3.org/2000/svg">
<path d="M8.3335 32.5V8.33333C8.3335 7.44928 8.68469 6.60143 9.30981 5.97631C9.93493 5.35119 10.7828 5 11.6668 5H30.6668C30.932 5 31.1864 5.10536 31.3739 5.29289C31.5615 5.48043 31.6668 5.73478 31.6668 6V35H10.8335M15.0002 11.6667H25.0002M10.8335 25H31.6668M10.8335 30H31.6668" stroke="white" stroke-width="2" stroke-linecap="round"/>
<path d="M10.8335 25C9.16683 25 8.3335 26.12 8.3335 27.5C8.3335 28.88 9.16683 30 10.8335 30C9.16683 30 8.3335 31.12 8.3335 32.5C8.3335 33.88 9.16683 35 10.8335 35" stroke="white" stroke-width="2" stroke-linecap="round" stroke-linejoin="round"/>
</svg>
