<svg width="40" height="40" viewBox="0 0 40 40" fill="none" xmlns="http://www.w3.org/2000/svg">
<path fill-rule="evenodd" clip-rule="evenodd" d="M13.3335 12.3627C13.3335 10.0267 13.9788 8.28267 15.0482 7.13067C16.1042 5.992 17.7228 5.27467 20.0028 5.27467C22.2855 5.27467 23.9015 5.992 24.9548 7.12534C26.0215 8.27467 26.6668 10.0187 26.6668 12.3547V16H13.3335V12.3627ZM10.6668 16V12.3627C10.6668 9.54934 11.4482 7.088 13.0935 5.31467C14.7548 3.528 17.1388 2.608 20.0028 2.608C22.8695 2.608 25.2535 3.52533 26.9095 5.312C28.5548 7.08267 29.3335 9.544 29.3335 12.3547V16H32.0002C32.7074 16 33.3857 16.281 33.8858 16.7811C34.3859 17.2811 34.6668 17.9594 34.6668 18.6667V34.6667C34.6668 35.3739 34.3859 36.0522 33.8858 36.5523C33.3857 37.0524 32.7074 37.3333 32.0002 37.3333H8.00016C7.29292 37.3333 6.61464 37.0524 6.11454 36.5523C5.61445 36.0522 5.3335 35.3739 5.3335 34.6667V18.6667C5.3335 17.9594 5.61445 17.2811 6.11454 16.7811C6.61464 16.281 7.29292 16 8.00016 16H10.6668ZM8.00016 18.6667H32.0002V34.6667H8.00016V18.6667Z" fill="white"/>
</svg>
