<svg width="40" height="40" viewBox="0 0 40 40" fill="none" xmlns="http://www.w3.org/2000/svg">
<path d="M25 30H15C15 31.3261 15.5268 32.5979 16.4645 33.5355C17.4021 34.4732 18.6739 35 20 35C21.3261 35 22.5979 34.4732 23.5355 33.5355C24.4732 32.5979 25 31.3261 25 30Z" stroke="black" stroke-width="2" stroke-linecap="round" stroke-linejoin="round"/>
<path d="M32.3 23.9664C32.9623 24.6298 33.334 25.529 33.3336 26.4664C33.3336 26.9304 33.2422 27.3899 33.0646 27.8186C32.887 28.2474 32.6267 28.6369 32.2986 28.965C31.9705 29.2932 31.5809 29.5534 31.1522 29.731C30.7235 29.9086 30.264 30 29.8 30H10.2C9.73591 30.0001 9.27637 29.9088 8.84761 29.7312C8.41884 29.5537 8.02926 29.2934 7.70112 28.9653C7.37297 28.6371 7.11269 28.2475 6.93515 27.8188C6.7576 27.39 6.66628 26.9305 6.66638 26.4664C6.66592 25.529 7.03769 24.6298 7.69998 23.9664L9.99998 21.6664V15C9.99998 12.3478 11.0536 9.8043 12.9289 7.92893C14.8043 6.05357 17.3478 5 20 5C22.6521 5 25.1957 6.05357 27.0711 7.92893C28.9464 9.8043 30 12.3478 30 15V21.6664L32.3 23.9664Z" stroke="black" stroke-width="2" stroke-linecap="round" stroke-linejoin="round"/>
</svg>
