<svg width="30" height="30" viewBox="0 0 30 30" fill="none" xmlns="http://www.w3.org/2000/svg">
<path d="M5.35717 12.3214C5.35717 10.4744 6.09091 8.70298 7.39696 7.39693C8.70302 6.09087 10.4744 5.35714 12.3215 5.35714C14.1685 5.35714 15.9399 6.09087 17.2459 7.39693C18.552 8.70298 19.2857 10.4744 19.2857 12.3214C19.2857 14.1685 18.552 15.9399 17.2459 17.2459C15.9399 18.552 14.1685 19.2857 12.3215 19.2857C10.4744 19.2857 8.70302 18.552 7.39696 17.2459C6.09091 15.9399 5.35717 14.1685 5.35717 12.3214ZM12.3215 3.21428C10.8692 3.2144 9.4381 3.56181 8.14745 4.22752C6.85679 4.89323 5.74406 5.85794 4.90207 7.04116C4.06008 8.22438 3.51325 9.59179 3.30721 11.0293C3.10118 12.4669 3.2419 13.9328 3.71765 15.3049C4.19339 16.677 4.99036 17.9154 6.04207 18.9168C7.09377 19.9183 8.36971 20.6537 9.76343 21.0617C11.1572 21.4697 12.6283 21.5385 14.054 21.2624C15.4797 20.9863 16.8187 20.3732 17.9593 19.4743L24.9557 26.4718C25.1566 26.6728 25.4292 26.7858 25.7134 26.7859C25.9976 26.786 26.2702 26.6732 26.4713 26.4723C26.6723 26.2714 26.7853 25.9989 26.7854 25.7147C26.7855 25.4304 26.6727 25.1578 26.4718 24.9568L19.4743 17.9593C20.5329 16.6164 21.192 15.0026 21.3762 13.3026C21.5604 11.6025 21.2623 9.88502 20.516 8.34652C19.7697 6.80803 18.6053 5.51073 17.1561 4.6031C15.7069 3.69546 14.0314 3.21416 12.3215 3.21428Z" fill="black" fill-opacity="0.3"/>
</svg>
