<svg width="26" height="28" viewBox="0 0 26 28" fill="none" xmlns="http://www.w3.org/2000/svg">
<path fill-rule="evenodd" clip-rule="evenodd" d="M13 9.3125C11.7568 9.3125 10.5645 9.80636 9.68544 10.6854C8.80636 11.5645 8.3125 12.7568 8.3125 14C8.3125 15.2432 8.80636 16.4355 9.68544 17.3146C10.5645 18.1936 11.7568 18.6875 13 18.6875C14.2432 18.6875 15.4355 18.1936 16.3146 17.3146C17.1936 16.4355 17.6875 15.2432 17.6875 14C17.6875 12.7568 17.1936 11.5645 16.3146 10.6854C15.4355 9.80636 14.2432 9.3125 13 9.3125ZM10.1875 14C10.1875 13.2541 10.4838 12.5387 11.0113 12.0113C11.5387 11.4838 12.2541 11.1875 13 11.1875C13.7459 11.1875 14.4613 11.4838 14.9887 12.0113C15.5162 12.5387 15.8125 13.2541 15.8125 14C15.8125 14.7459 15.5162 15.4613 14.9887 15.9887C14.4613 16.5162 13.7459 16.8125 13 16.8125C12.2541 16.8125 11.5387 16.5162 11.0113 15.9887C10.4838 15.4613 10.1875 14.7459 10.1875 14Z" fill="black"/>
<path fill-rule="evenodd" clip-rule="evenodd" d="M12.9687 0.5625C12.4125 0.5625 11.9487 0.5625 11.5687 0.5875C11.1803 0.603675 10.7972 0.683922 10.435 0.825C10.0178 0.997612 9.63868 1.25072 9.31932 1.56986C8.99996 1.889 8.7466 2.26793 8.57371 2.685C8.39246 3.1225 8.34371 3.585 8.32371 4.0875C8.32171 4.27128 8.27306 4.45153 8.18233 4.61136C8.09159 4.77119 7.96174 4.90534 7.80496 5.00125C7.64357 5.08938 7.46242 5.13504 7.27853 5.13395C7.09464 5.13285 6.91405 5.08504 6.75371 4.995C6.30871 4.76 5.88371 4.57125 5.41371 4.50875C4.96614 4.44988 4.51136 4.47974 4.07533 4.59663C3.6393 4.71352 3.23057 4.91515 2.87246 5.19C2.56968 5.4336 2.30911 5.72543 2.10121 6.05375C1.88871 6.37125 1.65621 6.7725 1.37871 7.25375L1.34746 7.30875C1.06871 7.79 0.837463 8.19125 0.669963 8.53375C0.494963 8.89125 0.357463 9.24375 0.307463 9.63375C0.188213 10.5375 0.432812 11.4516 0.987463 12.175C1.27621 12.5512 1.65246 12.825 2.07746 13.0925C2.23591 13.1862 2.36793 13.3186 2.46108 13.4774C2.55424 13.6361 2.60547 13.816 2.60996 14C2.60547 14.184 2.55424 14.3639 2.46108 14.5226C2.36793 14.6814 2.23591 14.8138 2.07746 14.9075C1.65246 15.175 1.27746 15.4488 0.987463 15.825C0.712609 16.1831 0.510981 16.5918 0.394091 17.0279C0.277202 17.4639 0.247341 17.9187 0.306213 18.3663C0.357463 18.7563 0.493713 19.1087 0.668713 19.4662C0.837463 19.8087 1.06871 20.21 1.34746 20.6913L1.37871 20.7462C1.65621 21.2275 1.88871 21.6288 2.10121 21.9463C2.32246 22.275 2.55996 22.5713 2.87246 22.8088C3.23047 23.0838 3.63917 23.2857 4.0752 23.4028C4.51123 23.5199 4.96606 23.5499 5.41371 23.4913C5.88371 23.4288 6.30871 23.2413 6.75371 23.005C6.91386 22.9151 7.09424 22.8673 7.27791 22.8662C7.46157 22.8651 7.64251 22.9107 7.80371 22.9987C7.96136 23.0939 8.09203 23.2278 8.18327 23.3878C8.27451 23.5477 8.32329 23.7284 8.32496 23.9125C8.34371 24.415 8.39246 24.8775 8.57496 25.315C8.74757 25.7322 9.00068 26.1113 9.31982 26.4306C9.63896 26.75 10.0179 27.0034 10.435 27.1763C10.7975 27.3263 11.1725 27.385 11.5687 27.4113C11.9487 27.4375 12.4125 27.4375 12.9687 27.4375H13.0312C13.5875 27.4375 14.0512 27.4375 14.4312 27.4125C14.8287 27.385 15.2025 27.3263 15.565 27.175C15.9822 27.0024 16.3612 26.7493 16.6806 26.4301C17 26.111 17.2533 25.7321 17.4262 25.315C17.6075 24.8775 17.6562 24.415 17.6762 23.9125C17.678 23.7285 17.7266 23.548 17.8173 23.3879C17.908 23.2279 18.038 23.0935 18.195 22.9975C18.3565 22.9096 18.5377 22.8641 18.7216 22.8654C18.9054 22.8667 19.086 22.9148 19.2462 23.005C19.6912 23.24 20.1162 23.4287 20.5862 23.49C21.49 23.6092 22.404 23.3647 23.1275 22.81C23.44 22.57 23.6775 22.275 23.8987 21.9463C24.1112 21.6288 24.3437 21.2275 24.6212 20.7462L24.6525 20.6913C24.9312 20.21 25.1625 19.8087 25.33 19.4662C25.505 19.1087 25.6425 18.755 25.6925 18.3663C25.8117 17.4625 25.5671 16.5484 25.0125 15.825C24.7237 15.4488 24.3475 15.175 23.9225 14.9075C23.764 14.8138 23.632 14.6814 23.5388 14.5226C23.4457 14.3639 23.3945 14.184 23.39 14C23.39 13.6525 23.58 13.3075 23.9225 13.0925C24.3475 12.825 24.7225 12.5512 25.0125 12.175C25.2873 11.8169 25.4889 11.4082 25.6058 10.9721C25.7227 10.5361 25.7526 10.0813 25.6937 9.63375C25.6342 9.24964 25.5117 8.87798 25.3312 8.53375C25.1178 8.11843 24.8914 7.7099 24.6525 7.30875L24.6212 7.25375C24.3929 6.84636 24.1519 6.44617 23.8987 6.05375C23.6908 5.72577 23.4302 5.43436 23.1275 5.19125C22.7695 4.91618 22.3608 4.71432 21.9247 4.59722C21.4887 4.48012 21.0339 4.45005 20.5862 4.50875C20.1162 4.57125 19.6912 4.75875 19.2462 4.995C19.086 5.08482 18.9057 5.13251 18.722 5.1336C18.5384 5.13469 18.3575 5.08916 18.1962 5.00125C18.039 4.90565 17.9086 4.77162 17.8174 4.61177C17.7263 4.45193 17.6772 4.27151 17.675 4.0875C17.6562 3.585 17.6075 3.1225 17.425 2.685C17.2524 2.26781 16.9992 1.88871 16.6801 1.56936C16.361 1.25 15.982 0.996642 15.565 0.82375C15.2025 0.67375 14.8275 0.615 14.4312 0.58875C14.0512 0.5625 13.5875 0.5625 13.0312 0.5625H12.9687ZM11.1525 2.55625C11.2487 2.51625 11.395 2.48 11.6962 2.45875C12.005 2.4375 12.405 2.4375 13 2.4375C13.595 2.4375 13.995 2.4375 14.3037 2.45875C14.605 2.48 14.7512 2.51625 14.8475 2.55625C15.2312 2.715 15.535 3.01875 15.6937 3.4025C15.7437 3.5225 15.785 3.71125 15.8012 4.1575C15.8387 5.1475 16.35 6.10125 17.2575 6.625C18.165 7.15 19.2462 7.115 20.1225 6.6525C20.5175 6.44375 20.7012 6.385 20.8312 6.36875C21.2419 6.31448 21.6574 6.42554 21.9862 6.6775C22.0687 6.74125 22.1737 6.85 22.3425 7.1C22.5162 7.3575 22.7162 7.70375 23.0137 8.21875C23.3112 8.73375 23.51 9.08125 23.6462 9.35875C23.78 9.63 23.8212 9.775 23.8337 9.87875C23.888 10.2895 23.7769 10.7049 23.525 11.0337C23.445 11.1375 23.3025 11.2675 22.925 11.505C22.085 12.0325 21.515 12.9525 21.515 14C21.515 15.0475 22.085 15.9675 22.925 16.495C23.3025 16.7325 23.445 16.8625 23.525 16.9663C23.7775 17.295 23.8875 17.71 23.8337 18.1212C23.8212 18.225 23.7787 18.3713 23.6462 18.6413C23.51 18.92 23.3112 19.2662 23.0137 19.7812C22.7162 20.2963 22.515 20.6425 22.3425 20.9C22.1737 21.15 22.0687 21.2587 21.9862 21.3225C21.6574 21.5745 21.2419 21.6855 20.8312 21.6312C20.7012 21.615 20.5187 21.5563 20.1225 21.3475C19.2475 20.885 18.165 20.85 17.2575 21.3738C16.35 21.8988 15.8387 22.8525 15.8012 23.8425C15.785 24.2888 15.7437 24.4775 15.6937 24.5975C15.6152 24.7872 15.5 24.9597 15.3548 25.1049C15.2096 25.2501 15.0372 25.3652 14.8475 25.4438C14.7512 25.4838 14.605 25.52 14.3037 25.5412C13.995 25.5625 13.595 25.5625 13 25.5625C12.405 25.5625 12.005 25.5625 11.6962 25.5412C11.395 25.52 11.2487 25.4838 11.1525 25.4438C10.9627 25.3652 10.7903 25.2501 10.6451 25.1049C10.4999 24.9597 10.3847 24.7872 10.3062 24.5975C10.2562 24.4775 10.215 24.2888 10.1987 23.8425C10.1612 22.8525 9.64996 21.8987 8.74246 21.375C7.83496 20.85 6.75371 20.885 5.87746 21.3475C5.48246 21.5563 5.29871 21.615 5.16871 21.6312C4.75801 21.6855 4.34256 21.5745 4.01371 21.3225C3.93121 21.2587 3.82621 21.15 3.65746 20.9C3.42235 20.534 3.1985 20.1609 2.98621 19.7812C2.68871 19.2662 2.48996 18.9188 2.35371 18.6413C2.21996 18.37 2.17871 18.225 2.16621 18.1212C2.11194 17.7105 2.223 17.2951 2.47496 16.9663C2.55496 16.8625 2.69746 16.7325 3.07496 16.495C3.91496 15.9675 4.48496 15.0475 4.48496 14C4.48496 12.9525 3.91496 12.0325 3.07496 11.505C2.69746 11.2675 2.55496 11.1375 2.47496 11.0337C2.223 10.7049 2.11194 10.2895 2.16621 9.87875C2.17871 9.775 2.22121 9.62875 2.35371 9.35875C2.48996 9.08 2.68871 8.73375 2.98621 8.21875C3.28371 7.70375 3.48496 7.3575 3.65746 7.1C3.82621 6.85 3.93121 6.74125 4.01371 6.6775C4.34256 6.42554 4.75801 6.31448 5.16871 6.36875C5.29871 6.385 5.48121 6.44375 5.87746 6.6525C6.75246 7.115 7.83496 7.15 8.74246 6.625C9.64996 6.10125 10.1612 5.1475 10.1987 4.1575C10.215 3.71125 10.2562 3.5225 10.3062 3.4025C10.465 3.01875 10.7687 2.715 11.1525 2.55625Z" fill="black"/>
</svg>
