<svg width="24" height="25" viewBox="0 0 24 25" fill="none" xmlns="http://www.w3.org/2000/svg">
<path d="M20.3301 4.17008C20.141 3.98225 19.9037 3.8502 19.6443 3.78845C19.385 3.72671 19.1136 3.73765 18.8601 3.82008L4.23012 8.70008C3.9588 8.78606 3.71903 8.95051 3.54111 9.17267C3.36319 9.39484 3.2551 9.66474 3.23049 9.9483C3.20588 10.2319 3.26585 10.5164 3.40284 10.7658C3.53982 11.0153 3.74766 11.2186 4.00012 11.3501L10.0701 14.3501L13.0701 20.4401C13.1907 20.6785 13.3752 20.8786 13.603 21.0181C13.8309 21.1576 14.093 21.231 14.3601 21.2301H14.4601C14.7462 21.209 15.0194 21.1024 15.2441 20.924C15.4688 20.7457 15.6346 20.5039 15.7201 20.2301L20.6701 5.64008C20.7585 5.38801 20.7735 5.11602 20.7133 4.85578C20.6531 4.59553 20.5202 4.35774 20.3301 4.17008ZM4.85012 10.0801L17.6201 5.82008L10.5301 12.9101L4.85012 10.0801ZM14.4301 19.6501L11.5901 13.9701L18.6801 6.88008L14.4301 19.6501Z" fill="#E63946"/>
</svg>
