<svg width="30" height="30" viewBox="0 0 30 30" fill="none" xmlns="http://www.w3.org/2000/svg">
<path d="M26.5625 15H11.1188M5.6675 15H3.4375M5.6675 15C5.6675 14.2773 5.9546 13.5842 6.46563 13.0731C6.97667 12.5621 7.66979 12.275 8.3925 12.275C9.11522 12.275 9.80833 12.5621 10.3194 13.0731C10.8304 13.5842 11.1175 14.2773 11.1175 15C11.1175 15.7227 10.8304 16.4158 10.3194 16.9269C9.80833 17.4379 9.11522 17.725 8.3925 17.725C7.66979 17.725 6.97667 17.4379 6.46563 16.9269C5.9546 16.4158 5.6675 15.7227 5.6675 15ZM26.5625 23.2588H19.3775M19.3775 23.2588C19.3775 23.9816 19.0897 24.6755 18.5786 25.1867C18.0674 25.6978 17.3741 25.985 16.6513 25.985C15.9285 25.985 15.2354 25.6967 14.7244 25.1856C14.2133 24.6746 13.9262 23.9815 13.9262 23.2588M19.3775 23.2588C19.3775 22.5359 19.0897 21.8432 18.5786 21.3321C18.0674 20.8209 17.3741 20.5338 16.6513 20.5338C15.9285 20.5338 15.2354 20.8208 14.7244 21.3319C14.2133 21.8429 13.9262 22.536 13.9262 23.2588M13.9262 23.2588H3.4375M26.5625 6.74125H22.6813M17.23 6.74125H3.4375M17.23 6.74125C17.23 6.01854 17.5171 5.32542 18.0281 4.81438C18.5392 4.30335 19.2323 4.01625 19.955 4.01625C20.3129 4.01625 20.6672 4.08673 20.9978 4.22368C21.3284 4.36062 21.6288 4.56134 21.8819 4.81438C22.1349 5.06742 22.3356 5.36783 22.4726 5.69844C22.6095 6.02905 22.68 6.3834 22.68 6.74125C22.68 7.0991 22.6095 7.45345 22.4726 7.78406C22.3356 8.11468 22.1349 8.41508 21.8819 8.66812C21.6288 8.92116 21.3284 9.12188 20.9978 9.25882C20.6672 9.39577 20.3129 9.46625 19.955 9.46625C19.2323 9.46625 18.5392 9.17915 18.0281 8.66812C17.5171 8.15708 17.23 7.46397 17.23 6.74125Z" stroke="black" stroke-width="2" stroke-miterlimit="10" stroke-linecap="round"/>
</svg>
