<svg width="30" height="30" viewBox="0 0 30 30" fill="none" xmlns="http://www.w3.org/2000/svg">
<path d="M5 22.5H10C10.6875 22.5 11.25 21.9375 11.25 21.25C11.25 20.5625 10.6875 20 10 20H5C4.3125 20 3.75 20.5625 3.75 21.25C3.75 21.9375 4.3125 22.5 5 22.5ZM3.75 8.75C3.75 9.4375 4.3125 10 5 10H25C25.6875 10 26.25 9.4375 26.25 8.75C26.25 8.0625 25.6875 7.5 25 7.5H5C4.3125 7.5 3.75 8.0625 3.75 8.75ZM5 16.25H17.5C18.1875 16.25 18.75 15.6875 18.75 15C18.75 14.3125 18.1875 13.75 17.5 13.75H5C4.3125 13.75 3.75 14.3125 3.75 15C3.75 15.6875 4.3125 16.25 5 16.25Z" fill="black"/>
</svg>
