<svg width="10" height="11" viewBox="0 0 10 11" fill="none" xmlns="http://www.w3.org/2000/svg">
<path d="M9.15193 4.98631L7.39412 6.50311L7.92966 8.77147C7.95921 8.89461 7.9516 9.02374 7.9078 9.14255C7.86399 9.26137 7.78595 9.36454 7.68354 9.43903C7.58113 9.51351 7.45895 9.55598 7.33241 9.56106C7.20588 9.56614 7.08068 9.5336 6.97263 9.46756L4.99998 8.2535L3.02615 9.46756C2.91811 9.53322 2.79306 9.56545 2.66675 9.56018C2.54043 9.55492 2.4185 9.51239 2.3163 9.43797C2.21411 9.36355 2.13622 9.26055 2.09244 9.14195C2.04866 9.02334 2.04095 8.89444 2.07029 8.77147L2.60779 6.50311L0.849976 4.98631C0.754389 4.9037 0.685259 4.79475 0.651219 4.67309C0.617179 4.55142 0.619737 4.42242 0.658575 4.3022C0.697413 4.18197 0.770809 4.07586 0.869596 3.9971C0.968384 3.91834 1.08818 3.87043 1.21404 3.85936L3.51873 3.67342L4.40779 1.52186C4.45591 1.4046 4.53782 1.3043 4.64309 1.23371C4.74836 1.16312 4.87225 1.12543 4.999 1.12543C5.12575 1.12543 5.24964 1.16312 5.35491 1.23371C5.46018 1.3043 5.54209 1.4046 5.59021 1.52186L6.47888 3.67342L8.78357 3.85936C8.90967 3.87002 9.02982 3.91766 9.12897 3.99631C9.22812 4.07496 9.30185 4.18112 9.34093 4.30149C9.38001 4.42186 9.3827 4.55108 9.34866 4.67297C9.31462 4.79486 9.24537 4.90399 9.14958 4.9867L9.15193 4.98631Z" fill="#20A39E"/>
</svg>
